<svg width="17" height="17" viewBox="0 0 17 17" fill="none" xmlns="http://www.w3.org/2000/svg">
<g clip-path="url(#clip0_1902_5744)">
<path d="M13.621 16.1182C13.5161 16.1182 13.4125 16.0848 13.3257 16.022L8.34282 12.3954L3.35994 16.0234C3.20761 16.1329 3.00584 16.1503 2.83747 16.0634C2.67044 15.9786 2.56354 15.8062 2.56354 15.6178V4.1588C2.56354 3.33032 3.23834 2.65552 4.06682 2.65552H12.6175C13.446 2.65552 14.1208 3.33032 14.1208 4.1588V15.6171C14.1208 15.8055 14.0152 15.9779 13.8468 16.0634C13.776 16.1002 13.6978 16.1182 13.6197 16.1182H13.621ZM8.34282 11.2743C8.44637 11.2743 8.54993 11.3064 8.63679 11.3705L13.1199 14.633V4.1588C13.1199 3.88353 12.8947 3.6577 12.6188 3.6577H4.06682C3.79088 3.6577 3.56572 3.88353 3.56572 4.1588V14.633L8.04884 11.3705C8.1357 11.3064 8.23926 11.2743 8.34282 11.2743Z" fill="white"/>
</g>
<defs>
<clipPath id="clip0_1902_5744">
<rect width="16.035" height="16.035" fill="white" transform="translate(0.325317 0.417358)"/>
</clipPath>
</defs>
</svg>
